<mxfile host="app.diagrams.net" modified="2024-03-01T07:59:09.989Z" agent="Mozilla/5.0 (Windows NT 10.0; Win64; x64) AppleWebKit/537.36 (KHTML, like Gecko) Chrome/122.0.0.0 Safari/537.36 Edg/122.0.0.0" etag="Ti1bCLqmuQxO_VEVQ4Y4" version="23.1.8" type="device">
  <diagram name="Page-1" id="o4OhZ2oS_HKrllLenh68">
    <mxGraphModel dx="2487" dy="2783" grid="1" gridSize="10" guides="1" tooltips="1" connect="1" arrows="1" fold="1" page="1" pageScale="1" pageWidth="850" pageHeight="1100" math="0" shadow="0">
      <root>
        <mxCell id="0" />
        <mxCell id="1" parent="0" />
        <mxCell id="ifTaqjOP2CNsPisrQnqM-1" parent="0" />
        <mxCell id="ifTaqjOP2CNsPisrQnqM-2" value="Vertical bar chart" style="html=1;overflow=block;blockSpacing=1;whiteSpace=wrap;fontSize=16.7;fontFamily=Helvetica;spacing=3.8;strokeColor=#000000;rounded=1;absoluteArcSize=1;arcSize=7.5;fillColor=#CCE5FF;strokeWidth=1;lucidId=9YwLfgtRs5Tj;perimeterSpacing=0;" vertex="1" parent="ifTaqjOP2CNsPisrQnqM-1">
          <mxGeometry x="685" y="-291" width="191" height="98" as="geometry" />
        </mxCell>
        <mxCell id="ifTaqjOP2CNsPisrQnqM-3" value="" style="html=1;jettySize=18;whiteSpace=wrap;fontSize=13;fontFamily=Helvetica;strokeColor=#333333;strokeOpacity=100;strokeWidth=0.8;rounded=1;arcSize=10;edgeStyle=orthogonalEdgeStyle;startArrow=none;endArrow=block;endFill=1;exitX=0.5;exitY=1.004;exitPerimeter=0;entryX=0.5;entryY=0.001;entryPerimeter=0;lucidId=9YwL8oeteDcB;" edge="1" parent="ifTaqjOP2CNsPisrQnqM-1" source="ifTaqjOP2CNsPisrQnqM-2" target="ifTaqjOP2CNsPisrQnqM-4">
          <mxGeometry width="100" height="100" relative="1" as="geometry">
            <Array as="points" />
          </mxGeometry>
        </mxCell>
        <mxCell id="ifTaqjOP2CNsPisrQnqM-4" value="Type of x-axis" style="html=1;overflow=block;blockSpacing=1;whiteSpace=wrap;rhombus;fontSize=16.7;fontFamily=Helvetica;spacing=3.3;strokeColor=#007FFF;rounded=1;absoluteArcSize=1;arcSize=7.5;fillColor=default;strokeWidth=2;lucidId=9YwLLfgIR_U6;" vertex="1" parent="ifTaqjOP2CNsPisrQnqM-1">
          <mxGeometry x="685" y="-150" width="190" height="138" as="geometry" />
        </mxCell>
        <mxCell id="ifTaqjOP2CNsPisrQnqM-5" value="" style="html=1;jettySize=18;whiteSpace=wrap;fontSize=13.3;fontFamily=Helvetica;fontColor=#3a414a;strokeColor=#333333;strokeOpacity=100;strokeWidth=0.8;rounded=1;arcSize=10;edgeStyle=orthogonalEdgeStyle;startArrow=none;endArrow=block;endFill=1;exitX=0.996;exitY=0.5;exitPerimeter=0;entryX=0.5;entryY=0.001;entryPerimeter=0;lucidId=9YwLdxpSuw8a;" edge="1" parent="ifTaqjOP2CNsPisrQnqM-1" source="ifTaqjOP2CNsPisrQnqM-4" target="ifTaqjOP2CNsPisrQnqM-14">
          <mxGeometry width="100" height="100" relative="1" as="geometry">
            <Array as="points">
              <mxPoint x="1215" y="-81" />
              <mxPoint x="1215" y="345" />
              <mxPoint x="770" y="345" />
            </Array>
          </mxGeometry>
        </mxCell>
        <mxCell id="ifTaqjOP2CNsPisrQnqM-6" value="Numeric / Date" style="text;html=1;resizable=0;labelBackgroundColor=default;align=center;verticalAlign=middle;fontColor=#3a414a;fontSize=13.3;" vertex="1" parent="ifTaqjOP2CNsPisrQnqM-5">
          <mxGeometry relative="1" as="geometry" />
        </mxCell>
        <mxCell id="ifTaqjOP2CNsPisrQnqM-7" value="" style="html=1;jettySize=18;whiteSpace=wrap;fontSize=13;fontFamily=Helvetica;strokeColor=#333333;strokeOpacity=100;strokeWidth=0.8;rounded=1;arcSize=10;edgeStyle=orthogonalEdgeStyle;startArrow=none;endArrow=block;endFill=1;exitX=0.5;exitY=0.999;exitPerimeter=0;entryX=0.5;entryY=-0.004;entryPerimeter=0;lucidId=9YwLz~brRzr6;" edge="1" parent="ifTaqjOP2CNsPisrQnqM-1" source="ifTaqjOP2CNsPisrQnqM-13" target="ifTaqjOP2CNsPisrQnqM-9">
          <mxGeometry width="100" height="100" relative="1" as="geometry">
            <Array as="points" />
          </mxGeometry>
        </mxCell>
        <mxCell id="ifTaqjOP2CNsPisrQnqM-8" value="Yes" style="text;html=1;resizable=0;labelBackgroundColor=default;align=center;verticalAlign=middle;fontColor=#3a414a;fontSize=13.3;" vertex="1" parent="ifTaqjOP2CNsPisrQnqM-7">
          <mxGeometry x="-0.12300231451809707" relative="1" as="geometry" />
        </mxCell>
        <mxCell id="ifTaqjOP2CNsPisrQnqM-9" value="Overrides the default inner and outer padding." style="html=1;overflow=block;blockSpacing=1;whiteSpace=wrap;fontSize=16.7;fontFamily=Helvetica;spacing=3.8;strokeColor=#000000;rounded=1;absoluteArcSize=1;arcSize=7.5;fillColor=#CCE5FF;strokeWidth=1;lucidId=9YwLFzqx.hCI;" vertex="1" parent="ifTaqjOP2CNsPisrQnqM-1">
          <mxGeometry x="450" y="210" width="195" height="90" as="geometry" />
        </mxCell>
        <mxCell id="ifTaqjOP2CNsPisrQnqM-10" value="" style="html=1;jettySize=18;whiteSpace=wrap;fontSize=13;fontFamily=Helvetica;strokeColor=#333333;strokeOpacity=100;strokeWidth=0.8;rounded=1;arcSize=10;edgeStyle=orthogonalEdgeStyle;startArrow=none;endArrow=block;endFill=1;exitX=0.498;exitY=0.999;exitPerimeter=0;entryX=0.5;entryY=0.001;entryPerimeter=0;lucidId=9YwLgeOZhXL~;" edge="1" parent="ifTaqjOP2CNsPisrQnqM-1" source="ifTaqjOP2CNsPisrQnqM-4" target="ifTaqjOP2CNsPisrQnqM-13">
          <mxGeometry width="100" height="100" relative="1" as="geometry">
            <Array as="points" />
          </mxGeometry>
        </mxCell>
        <mxCell id="ifTaqjOP2CNsPisrQnqM-11" value="String" style="text;html=1;resizable=0;labelBackgroundColor=default;align=center;verticalAlign=middle;fontColor=#3a414a;fontSize=13.3;" vertex="1" parent="ifTaqjOP2CNsPisrQnqM-10">
          <mxGeometry x="-0.3346584392717771" relative="1" as="geometry" />
        </mxCell>
        <mxCell id="ifTaqjOP2CNsPisrQnqM-12" value="Default inner and outer padding vaues will be used." style="html=1;overflow=block;blockSpacing=1;whiteSpace=wrap;fontSize=16.7;fontFamily=Helvetica;spacing=3.8;strokeColor=#000000;rounded=1;absoluteArcSize=1;arcSize=7.5;fillColor=#CCE5FF;strokeWidth=1;lucidId=9YwLL.iYdirB;" vertex="1" parent="ifTaqjOP2CNsPisrQnqM-1">
          <mxGeometry x="915" y="210" width="225" height="90" as="geometry" />
        </mxCell>
        <mxCell id="ifTaqjOP2CNsPisrQnqM-13" value="Are inner and outer padding props provided?" style="html=1;overflow=block;blockSpacing=1;whiteSpace=wrap;rhombus;fontSize=16.7;spacingLeft=8.8;spacingRight=8.8;spacingTop=2.5;spacing=3.8;verticalAlign=middle;strokeColor=#007FFF;rounded=1;absoluteArcSize=1;arcSize=7.5;fillColor=default;strokeWidth=2;lucidId=9YwLPzIDI7GY;" vertex="1" parent="ifTaqjOP2CNsPisrQnqM-1">
          <mxGeometry x="684" y="31" width="190" height="138" as="geometry" />
        </mxCell>
        <mxCell id="ifTaqjOP2CNsPisrQnqM-14" value="&lt;div style=&quot;display: flex; justify-content: center; text-align: center; align-items: baseline; font-size: 0; line-height: 1.25;margin-top: -2px;&quot;&gt;&lt;span&gt;&lt;span style=&quot;font-size:16.7px;&quot;&gt;Is &lt;/span&gt;&lt;span style=&quot;font-size:16.7px;font-style: italic;&quot;&gt;barWidth&lt;/span&gt;&lt;span style=&quot;font-size:16.7px;&quot;&gt; prop provided?&lt;/span&gt;&lt;/span&gt;&lt;/div&gt;" style="html=1;overflow=block;blockSpacing=1;whiteSpace=wrap;rhombus;fontSize=13;spacing=3.3;strokeColor=#007FFF;rounded=1;absoluteArcSize=1;arcSize=7.5;fillColor=default;strokeWidth=2;lucidId=9YwLb2d~CnAW;" vertex="1" parent="ifTaqjOP2CNsPisrQnqM-1">
          <mxGeometry x="675" y="375" width="190" height="138" as="geometry" />
        </mxCell>
        <mxCell id="ifTaqjOP2CNsPisrQnqM-15" value="" style="html=1;jettySize=18;whiteSpace=wrap;fontSize=13.3;fontColor=#3a414a;strokeColor=#333333;strokeOpacity=100;strokeWidth=0.8;rounded=1;arcSize=10;edgeStyle=orthogonalEdgeStyle;startArrow=none;endArrow=block;endFill=1;exitX=0.996;exitY=0.5;exitPerimeter=0;entryX=0.5;entryY=-0.004;entryPerimeter=0;lucidId=9YwLZvTl-fFY;" edge="1" parent="ifTaqjOP2CNsPisrQnqM-1" source="ifTaqjOP2CNsPisrQnqM-13" target="ifTaqjOP2CNsPisrQnqM-12">
          <mxGeometry width="100" height="100" relative="1" as="geometry">
            <Array as="points" />
          </mxGeometry>
        </mxCell>
        <mxCell id="ifTaqjOP2CNsPisrQnqM-16" value="No" style="text;html=1;resizable=0;labelBackgroundColor=default;align=center;verticalAlign=middle;fontColor=#3a414a;fontSize=13.3;" vertex="1" parent="ifTaqjOP2CNsPisrQnqM-15">
          <mxGeometry x="-0.2522164369833607" relative="1" as="geometry" />
        </mxCell>
        <mxCell id="ifTaqjOP2CNsPisrQnqM-17" value="" style="html=1;jettySize=18;whiteSpace=wrap;fontSize=13;strokeColor=#3a414a;strokeOpacity=100;strokeWidth=0.8;rounded=1;arcSize=24;edgeStyle=orthogonalEdgeStyle;startArrow=none;endArrow=block;endFill=1;exitX=0.5;exitY=1.004;exitPerimeter=0;entryX=0.5;entryY=0.001;entryPerimeter=0;lucidId=n05cTGTY3JA~;" edge="1" parent="ifTaqjOP2CNsPisrQnqM-1" source="ifTaqjOP2CNsPisrQnqM-12" target="ifTaqjOP2CNsPisrQnqM-14">
          <mxGeometry width="100" height="100" relative="1" as="geometry">
            <Array as="points" />
          </mxGeometry>
        </mxCell>
        <mxCell id="ifTaqjOP2CNsPisrQnqM-18" value="" style="html=1;jettySize=18;whiteSpace=wrap;fontSize=13;strokeColor=#3a414a;strokeOpacity=100;strokeWidth=0.8;rounded=1;arcSize=24;edgeStyle=orthogonalEdgeStyle;startArrow=none;endArrow=block;endFill=1;exitX=0.5;exitY=1.004;exitPerimeter=0;entryX=0.5;entryY=0.001;entryPerimeter=0;lucidId=y05cJtFL6XeX;" edge="1" parent="ifTaqjOP2CNsPisrQnqM-1" source="ifTaqjOP2CNsPisrQnqM-9" target="ifTaqjOP2CNsPisrQnqM-14">
          <mxGeometry width="100" height="100" relative="1" as="geometry">
            <Array as="points" />
          </mxGeometry>
        </mxCell>
        <mxCell id="ifTaqjOP2CNsPisrQnqM-19" value="Type of x-axis" style="html=1;overflow=block;blockSpacing=1;whiteSpace=wrap;rhombus;fontSize=16.7;align=center;spacing=3.3;strokeColor=#007FFF;rounded=1;absoluteArcSize=1;arcSize=7.5;fillColor=default;strokeWidth=2;lucidId=405cg647uPhH;" vertex="1" parent="ifTaqjOP2CNsPisrQnqM-1">
          <mxGeometry x="900" y="555" width="190" height="138" as="geometry" />
        </mxCell>
        <mxCell id="ifTaqjOP2CNsPisrQnqM-20" value="Default bar width of 16px will be used." style="html=1;overflow=block;blockSpacing=1;whiteSpace=wrap;fontSize=16.7;fontFamily=Helvetica;spacing=3.8;strokeColor=#000000;rounded=1;absoluteArcSize=1;arcSize=7.5;fillColor=#CCE5FF;strokeWidth=1;lucidId=035cGxb3d3oc;" vertex="1" parent="ifTaqjOP2CNsPisrQnqM-1">
          <mxGeometry x="1125" y="735" width="191" height="90" as="geometry" />
        </mxCell>
        <mxCell id="ifTaqjOP2CNsPisrQnqM-21" value="Bar width will be calculated from padding values." style="html=1;overflow=block;blockSpacing=1;whiteSpace=wrap;fontSize=16.7;fontFamily=Helvetica;spacing=3.8;strokeColor=#000000;rounded=1;absoluteArcSize=1;arcSize=7.5;fillColor=#CCE5FF;strokeWidth=1;lucidId=t45cLlijir-A;" vertex="1" parent="ifTaqjOP2CNsPisrQnqM-1">
          <mxGeometry x="645" y="735" width="210" height="90" as="geometry" />
        </mxCell>
        <mxCell id="ifTaqjOP2CNsPisrQnqM-22" value="Specified bar width will be used. Padding may look different compared to actual value." style="html=1;overflow=block;blockSpacing=1;whiteSpace=wrap;fontSize=16.7;fontFamily=Helvetica;spacing=3.8;strokeColor=#000000;rounded=1;absoluteArcSize=1;arcSize=7.5;fillColor=#CCE5FF;strokeWidth=1;lucidId=945cED5xd70_;" vertex="1" parent="ifTaqjOP2CNsPisrQnqM-1">
          <mxGeometry x="435" y="555" width="195" height="90" as="geometry" />
        </mxCell>
        <mxCell id="ifTaqjOP2CNsPisrQnqM-23" value="&lt;div style=&quot;display: flex; justify-content: center; text-align: center; align-items: baseline; font-size: 0; line-height: 1.25;margin-top: -2px;&quot;&gt;&lt;span&gt;&lt;span style=&quot;font-size:16.7px;&quot;&gt;Is &lt;/span&gt;&lt;span style=&quot;font-size:16.7px;font-style: italic;&quot;&gt;maxBarWidth&lt;/span&gt;&lt;span style=&quot;font-size:16.7px;&quot;&gt; prop provided and is it less than bar width?&lt;/span&gt;&lt;/span&gt;&lt;/div&gt;" style="html=1;overflow=block;blockSpacing=1;whiteSpace=wrap;rhombus;fontSize=13;spacing=3.3;strokeColor=#007FFF;rounded=1;absoluteArcSize=1;arcSize=7.5;fillColor=default;strokeWidth=2;lucidId=Q75cQ-D-dR0r;" vertex="1" parent="ifTaqjOP2CNsPisrQnqM-1">
          <mxGeometry x="770" y="870" width="190" height="138" as="geometry" />
        </mxCell>
        <mxCell id="ifTaqjOP2CNsPisrQnqM-24" value="Maximum between 1px and bar width will be used." style="html=1;overflow=block;blockSpacing=1;whiteSpace=wrap;fontSize=16.7;fontFamily=Helvetica;spacing=3.8;strokeColor=#000000;rounded=1;absoluteArcSize=1;arcSize=7.5;fillColor=#CCE5FF;strokeWidth=1;lucidId=Q85cUZI3Ayg6;" vertex="1" parent="ifTaqjOP2CNsPisrQnqM-1">
          <mxGeometry x="1005" y="1050" width="210" height="90" as="geometry" />
        </mxCell>
        <mxCell id="ifTaqjOP2CNsPisrQnqM-25" value="&lt;div style=&quot;display: flex; justify-content: center; text-align: center; align-items: baseline; font-size: 0; line-height: 1.25;margin-top: -2px;&quot;&gt;&lt;span&gt;&lt;span style=&quot;font-size:16.7px;font-family: Helvetica;&quot;&gt;Maximum between 1px and &lt;/span&gt;&lt;span style=&quot;font-size:16.7px;font-style: italic;font-family: Helvetica;&quot;&gt;maxBarWidth&lt;/span&gt;&lt;span style=&quot;font-size:16.7px;font-family: Helvetica;&quot;&gt; will be used.&lt;/span&gt;&lt;/span&gt;&lt;/div&gt;" style="html=1;overflow=block;blockSpacing=1;whiteSpace=wrap;fontSize=13;fontFamily=Helvetica;spacing=3.8;strokeColor=#000000;rounded=1;absoluteArcSize=1;arcSize=7.5;fillColor=#CCE5FF;strokeWidth=1;lucidId=Q85cTT0lh-eX;" vertex="1" parent="ifTaqjOP2CNsPisrQnqM-1">
          <mxGeometry x="495" y="1050" width="225" height="90" as="geometry" />
        </mxCell>
        <mxCell id="ifTaqjOP2CNsPisrQnqM-26" value="" style="html=1;jettySize=18;whiteSpace=wrap;fontSize=13;align=center;strokeColor=#3a414a;strokeOpacity=100;strokeWidth=0.8;rounded=1;arcSize=24;edgeStyle=orthogonalEdgeStyle;startArrow=none;endArrow=block;endFill=1;exitX=0.996;exitY=0.5;exitPerimeter=0;entryX=0.5;entryY=0.001;entryPerimeter=0;lucidId=6s6cWjbruYsr;" edge="1" parent="ifTaqjOP2CNsPisrQnqM-1" source="ifTaqjOP2CNsPisrQnqM-14" target="ifTaqjOP2CNsPisrQnqM-19">
          <mxGeometry width="100" height="100" relative="1" as="geometry">
            <Array as="points">
              <mxPoint x="995" y="444" />
            </Array>
          </mxGeometry>
        </mxCell>
        <mxCell id="ifTaqjOP2CNsPisrQnqM-27" value="No" style="text;html=1;resizable=0;labelBackgroundColor=default;align=center;verticalAlign=middle;fontSize=13;" vertex="1" parent="ifTaqjOP2CNsPisrQnqM-26">
          <mxGeometry relative="1" as="geometry" />
        </mxCell>
        <mxCell id="ifTaqjOP2CNsPisrQnqM-28" value="" style="html=1;jettySize=18;whiteSpace=wrap;fontSize=13;align=center;strokeColor=#3a414a;strokeOpacity=100;strokeWidth=0.8;rounded=1;arcSize=24;edgeStyle=orthogonalEdgeStyle;startArrow=none;endArrow=block;endFill=1;exitX=0.5;exitY=0.999;exitPerimeter=0;entryX=0.5;entryY=-0.004;entryPerimeter=0;lucidId=vt6c6lWZ5tJV;" edge="1" parent="ifTaqjOP2CNsPisrQnqM-1" source="ifTaqjOP2CNsPisrQnqM-14" target="ifTaqjOP2CNsPisrQnqM-22">
          <mxGeometry width="100" height="100" relative="1" as="geometry">
            <Array as="points" />
          </mxGeometry>
        </mxCell>
        <mxCell id="ifTaqjOP2CNsPisrQnqM-29" value="Yes" style="text;html=1;resizable=0;labelBackgroundColor=default;align=center;verticalAlign=middle;fontSize=13;" vertex="1" parent="ifTaqjOP2CNsPisrQnqM-28">
          <mxGeometry relative="1" as="geometry" />
        </mxCell>
        <mxCell id="ifTaqjOP2CNsPisrQnqM-30" value="" style="html=1;jettySize=18;whiteSpace=wrap;fontSize=13;align=center;strokeColor=#3a414a;strokeOpacity=100;strokeWidth=0.8;rounded=1;arcSize=24;edgeStyle=orthogonalEdgeStyle;startArrow=none;endArrow=block;endFill=1;exitX=0.5;exitY=0.999;exitPerimeter=0;entryX=0.5;entryY=-0.004;entryPerimeter=0;lucidId=eu6cNIkU88PL;" edge="1" parent="ifTaqjOP2CNsPisrQnqM-1" source="ifTaqjOP2CNsPisrQnqM-19" target="ifTaqjOP2CNsPisrQnqM-21">
          <mxGeometry width="100" height="100" relative="1" as="geometry">
            <Array as="points" />
          </mxGeometry>
        </mxCell>
        <mxCell id="ifTaqjOP2CNsPisrQnqM-31" value="String" style="text;html=1;resizable=0;labelBackgroundColor=default;align=center;verticalAlign=middle;fontSize=13;" vertex="1" parent="ifTaqjOP2CNsPisrQnqM-30">
          <mxGeometry relative="1" as="geometry" />
        </mxCell>
        <mxCell id="ifTaqjOP2CNsPisrQnqM-32" value="" style="html=1;jettySize=18;whiteSpace=wrap;fontSize=13;align=center;strokeColor=#3a414a;strokeOpacity=100;strokeWidth=0.8;rounded=1;arcSize=24;edgeStyle=orthogonalEdgeStyle;startArrow=none;endArrow=block;endFill=1;exitX=0.996;exitY=0.5;exitPerimeter=0;entryX=0.5;entryY=-0.004;entryPerimeter=0;lucidId=lu6cXM-vXQhy;" edge="1" parent="ifTaqjOP2CNsPisrQnqM-1" source="ifTaqjOP2CNsPisrQnqM-19" target="ifTaqjOP2CNsPisrQnqM-20">
          <mxGeometry width="100" height="100" relative="1" as="geometry">
            <Array as="points" />
          </mxGeometry>
        </mxCell>
        <mxCell id="ifTaqjOP2CNsPisrQnqM-33" value="Numeric / Date" style="text;html=1;resizable=0;labelBackgroundColor=default;align=center;verticalAlign=middle;fontSize=13;" vertex="1" parent="ifTaqjOP2CNsPisrQnqM-32">
          <mxGeometry relative="1" as="geometry" />
        </mxCell>
        <mxCell id="ifTaqjOP2CNsPisrQnqM-34" value="" style="html=1;jettySize=18;whiteSpace=wrap;fontSize=13;align=center;strokeColor=#3a414a;strokeOpacity=100;strokeWidth=0.8;rounded=1;arcSize=24;edgeStyle=orthogonalEdgeStyle;startArrow=none;endArrow=block;endFill=1;exitX=0.5;exitY=0.999;exitPerimeter=0;entryX=0.5;entryY=-0.004;entryPerimeter=0;lucidId=9u6crlvWucEE;" edge="1" parent="ifTaqjOP2CNsPisrQnqM-1" source="ifTaqjOP2CNsPisrQnqM-23" target="ifTaqjOP2CNsPisrQnqM-25">
          <mxGeometry width="100" height="100" relative="1" as="geometry">
            <Array as="points" />
          </mxGeometry>
        </mxCell>
        <mxCell id="ifTaqjOP2CNsPisrQnqM-35" value="Yes" style="text;html=1;resizable=0;labelBackgroundColor=default;align=center;verticalAlign=middle;fontSize=13;" vertex="1" parent="ifTaqjOP2CNsPisrQnqM-34">
          <mxGeometry relative="1" as="geometry" />
        </mxCell>
        <mxCell id="ifTaqjOP2CNsPisrQnqM-36" value="" style="html=1;jettySize=18;whiteSpace=wrap;fontSize=13;align=center;strokeColor=#3a414a;strokeOpacity=100;strokeWidth=0.8;rounded=1;arcSize=24;edgeStyle=orthogonalEdgeStyle;startArrow=none;endArrow=block;endFill=1;exitX=0.996;exitY=0.5;exitPerimeter=0;entryX=0.5;entryY=-0.004;entryPerimeter=0;lucidId=av6cABh26u8f;" edge="1" parent="ifTaqjOP2CNsPisrQnqM-1" source="ifTaqjOP2CNsPisrQnqM-23" target="ifTaqjOP2CNsPisrQnqM-24">
          <mxGeometry width="100" height="100" relative="1" as="geometry">
            <Array as="points" />
          </mxGeometry>
        </mxCell>
        <mxCell id="ifTaqjOP2CNsPisrQnqM-37" value="No" style="text;html=1;resizable=0;labelBackgroundColor=default;align=center;verticalAlign=middle;fontSize=13;" vertex="1" parent="ifTaqjOP2CNsPisrQnqM-36">
          <mxGeometry relative="1" as="geometry" />
        </mxCell>
        <mxCell id="ifTaqjOP2CNsPisrQnqM-38" value="" style="html=1;jettySize=18;whiteSpace=wrap;fontSize=13;strokeColor=#3a414a;strokeOpacity=100;strokeWidth=0.8;rounded=1;arcSize=24;edgeStyle=orthogonalEdgeStyle;startArrow=none;endArrow=block;endFill=1;exitX=0.5;exitY=1.004;exitPerimeter=0;entryX=0.5;entryY=0.001;entryPerimeter=0;lucidId=gv6cPqb67qcq;" edge="1" parent="ifTaqjOP2CNsPisrQnqM-1" source="ifTaqjOP2CNsPisrQnqM-22" target="ifTaqjOP2CNsPisrQnqM-23">
          <mxGeometry width="100" height="100" relative="1" as="geometry">
            <Array as="points" />
          </mxGeometry>
        </mxCell>
        <mxCell id="ifTaqjOP2CNsPisrQnqM-39" value="" style="html=1;jettySize=18;whiteSpace=wrap;fontSize=13;strokeColor=#3a414a;strokeOpacity=100;strokeWidth=0.8;rounded=1;arcSize=24;edgeStyle=orthogonalEdgeStyle;startArrow=none;endArrow=block;endFill=1;exitX=0.5;exitY=1.004;exitPerimeter=0;entryX=0.5;entryY=0.001;entryPerimeter=0;lucidId=pv6cCfCuStGf;" edge="1" parent="ifTaqjOP2CNsPisrQnqM-1" source="ifTaqjOP2CNsPisrQnqM-20" target="ifTaqjOP2CNsPisrQnqM-23">
          <mxGeometry width="100" height="100" relative="1" as="geometry">
            <Array as="points" />
          </mxGeometry>
        </mxCell>
        <mxCell id="ifTaqjOP2CNsPisrQnqM-40" value="" style="html=1;jettySize=18;whiteSpace=wrap;fontSize=13;strokeColor=#3a414a;strokeOpacity=100;strokeWidth=0.8;rounded=1;arcSize=24;edgeStyle=orthogonalEdgeStyle;startArrow=none;endArrow=block;endFill=1;exitX=0.5;exitY=1.004;exitPerimeter=0;entryX=0.5;entryY=0.001;entryPerimeter=0;lucidId=wv6c.kFSJF0F;" edge="1" parent="ifTaqjOP2CNsPisrQnqM-1" source="ifTaqjOP2CNsPisrQnqM-21" target="ifTaqjOP2CNsPisrQnqM-23">
          <mxGeometry width="100" height="100" relative="1" as="geometry">
            <Array as="points" />
          </mxGeometry>
        </mxCell>
        <mxCell id="ifTaqjOP2CNsPisrQnqM-41" value="New Layer" parent="0" />
        <mxCell id="ifTaqjOP2CNsPisrQnqM-42" value="" style="group;dropTarget=0;pointerEvents=0;container=1;collapsible=0;recursiveResize=0;" vertex="1" parent="ifTaqjOP2CNsPisrQnqM-41">
          <mxGeometry as="geometry" />
        </mxCell>
      </root>
    </mxGraphModel>
  </diagram>
</mxfile>
